<svg width="28" height="28" viewBox="0 0 28 28" fill="none" xmlns="http://www.w3.org/2000/svg">
<path d="M25.9736 21.2678C25.9867 21.2274 25.9956 21.1847 25.9956 21.1398V6.31668C25.9956 6.27148 25.9867 6.22851 25.9733 6.18777C25.9713 6.18219 25.9702 6.17661 25.968 6.17103C25.9501 6.12332 25.9239 6.08035 25.891 6.04269C25.8888 6.04018 25.8885 6.03711 25.8862 6.0346C25.8848 6.0332 25.8832 6.03264 25.8818 6.03125C25.8466 5.99386 25.805 5.96373 25.7585 5.94113C25.7548 5.93945 25.752 5.93722 25.7484 5.93555C25.7043 5.91574 25.6563 5.90458 25.6058 5.90123C25.6008 5.90095 25.5961 5.89983 25.591 5.89983C25.5863 5.89955 25.5821 5.89844 25.5774 5.89844H2.36216C2.35741 5.89844 2.35295 5.89955 2.34821 5.89983C2.34374 5.90011 2.33928 5.90095 2.33481 5.90123C2.28375 5.90458 2.23493 5.91602 2.19029 5.9361C2.1875 5.93722 2.18526 5.93917 2.18247 5.94029C2.13504 5.96289 2.09291 5.99358 2.05748 6.03153C2.05608 6.03292 2.05441 6.0332 2.05301 6.0346C2.05078 6.03683 2.0505 6.0399 2.04827 6.04241C2.01534 6.08007 1.98884 6.12332 1.97098 6.17103C1.96875 6.17661 1.96763 6.18219 1.96568 6.18805C1.95229 6.22879 1.94336 6.27176 1.94336 6.31696V21.1403C1.94336 21.1861 1.95257 21.2296 1.96624 21.2709C1.96819 21.2765 1.96931 21.2818 1.97126 21.2874C1.9894 21.3354 2.01618 21.3786 2.04938 21.4163C2.05134 21.4185 2.0519 21.4213 2.05385 21.4235C2.05552 21.4255 2.05775 21.4266 2.05971 21.4285C2.07338 21.4428 2.08845 21.4553 2.10407 21.4676C2.11105 21.4729 2.11718 21.4793 2.12444 21.4843C2.14285 21.4972 2.16266 21.5075 2.18303 21.517C2.18805 21.5192 2.19252 21.5228 2.19754 21.5248C2.24804 21.5463 2.30356 21.5586 2.36188 21.5586H25.5768C25.6351 21.5586 25.6907 21.5466 25.7412 21.5248C25.749 21.5215 25.7562 21.5164 25.7638 21.5125C25.7811 21.5039 25.7983 21.4949 25.8143 21.4841C25.8226 21.4782 25.8302 21.4707 25.8383 21.4643C25.8525 21.4528 25.8664 21.4414 25.8787 21.4283C25.8809 21.426 25.8834 21.4244 25.8857 21.4221C25.8879 21.4196 25.8885 21.4163 25.8907 21.4138C25.9233 21.3764 25.9496 21.3334 25.9674 21.286C25.9702 21.2798 25.9716 21.274 25.9736 21.2678ZM2.78068 7.26588L9.8249 13.7002L2.78068 20.1858V7.26588ZM17.2184 13.3849C17.1894 13.4039 17.1587 13.4198 17.1345 13.4466C17.1253 13.4566 17.1222 13.4697 17.1141 13.4803L13.9696 16.3525L3.44082 6.7352H24.4984L17.2184 13.3849ZM10.4454 14.2669L13.6873 17.228C13.7673 17.3011 13.8683 17.3377 13.9696 17.3377C14.0709 17.3377 14.1719 17.3011 14.2517 17.228L17.4534 14.3037L24.4965 20.7215H3.43468L10.4454 14.2669ZM18.0742 13.7367L25.1586 7.26588V20.1925L18.0742 13.7367Z" fill="#FEF8F2"/>
</svg>
