<svg width="28" height="28" viewBox="0 0 28 28" fill="none" xmlns="http://www.w3.org/2000/svg">
<path d="M3.91247 12.7584C3.91247 12.7584 13.2003 8.53269 16.4214 7.0447C17.6563 6.44956 21.8438 4.54493 21.8438 4.54493C21.8438 4.54493 23.7766 3.71172 23.6155 5.7353C23.5617 6.56859 23.1323 9.48492 22.7028 12.6394C22.0585 17.1033 21.3606 21.9837 21.3606 21.9837C21.3606 21.9837 21.2532 23.3527 20.3406 23.5907C19.4279 23.8288 17.9246 22.7575 17.6563 22.5194C17.4415 22.3409 13.6297 19.6625 12.2339 18.3531C11.8581 17.996 11.4286 17.2819 12.2875 16.4486C14.2203 14.4845 16.5288 12.0442 17.9246 10.4968C18.5689 9.78253 19.2131 8.11604 16.5288 10.1396C12.7171 13.056 8.95902 15.7939 8.95902 15.7939C8.95902 15.7939 8.10001 16.389 6.48943 15.8533C4.87878 15.3177 2.99974 14.6035 2.99974 14.6035C2.99974 14.6035 1.71134 13.7107 3.91247 12.7584Z" fill="#FEF8F2"/>
</svg>
