<svg width="28" height="28" viewBox="0 0 28 28" fill="none" xmlns="http://www.w3.org/2000/svg">
<path d="M7.78933 24.4995V10.3303H2.91246V24.4995H7.78984H7.78933ZM5.35191 8.39611C7.05223 8.39611 8.11078 7.30809 8.11078 5.94836C8.07896 4.55766 7.05223 3.5 5.38425 3.5C3.71513 3.5 2.625 4.55766 2.625 5.94824C2.625 7.30797 3.68317 8.39599 5.31996 8.39599H5.35153L5.35191 8.39611ZM10.4887 24.4995H15.3652V16.5877C15.3652 16.1647 15.3971 15.7407 15.5259 15.4387C15.8783 14.5922 16.6807 13.716 18.0282 13.716C19.7925 13.716 20.4986 15.0152 20.4986 16.9202V24.4995H25.375V16.3753C25.375 12.0234 22.9694 9.99816 19.7609 9.99816C17.1303 9.99816 15.975 11.418 15.3332 12.3851H15.3656V10.3308H10.489C10.5527 11.6601 10.4886 24.5 10.4886 24.5L10.4887 24.4995Z" fill="#FEF8F2"/>
</svg>
