<svg width="28" height="28" viewBox="0 0 28 28" fill="none" xmlns="http://www.w3.org/2000/svg">
<g clip-path="url(#clip0_314_12067)">
<path d="M19.6875 28.0001H8.3125C7.73983 28.0066 7.18798 27.7857 6.77793 27.3859C6.36787 26.9861 6.13307 26.44 6.125 25.8673V2.13295C6.13307 1.5603 6.36787 1.01422 6.77793 0.614416C7.18798 0.214612 7.73983 -0.00629028 8.3125 0.0001364H19.6875C20.2602 -0.00629028 20.812 0.214612 21.2221 0.614416C21.6321 1.01422 21.8669 1.5603 21.875 2.13295V25.8673C21.8669 26.44 21.6321 26.9861 21.2221 27.3859C20.812 27.7857 20.2602 28.0066 19.6875 28.0001V28.0001ZM8.3125 0.875136C7.97188 0.868679 7.64257 0.997387 7.3966 1.23311C7.15064 1.46882 7.00804 1.79236 7 2.13295V25.8673C7.00804 26.2079 7.15064 26.5314 7.3966 26.7672C7.64257 27.0029 7.97188 27.1316 8.3125 27.1251H19.6875C20.0281 27.1316 20.3574 27.0029 20.6034 26.7672C20.8494 26.5314 20.992 26.2079 21 25.8673V2.13295C20.992 1.79236 20.8494 1.46882 20.6034 1.23311C20.3574 0.997387 20.0281 0.868679 19.6875 0.875136H8.3125Z" fill="#FEF8F2"/>
<path d="M16.4172 2.62523H11.5828C10.9856 2.62523 10.5 2.06305 10.5 1.37398V0.544922H11.375V1.37398C11.375 1.59273 11.4997 1.75023 11.5828 1.75023H16.4172C16.5003 1.75023 16.625 1.5993 16.625 1.37398V0.680547H17.5V1.37398C17.5 2.06305 17.0144 2.62523 16.4172 2.62523Z" fill="#FEF8F2"/>
</g>
<defs>
<clipPath id="clip0_314_12067">
<rect width="28" height="28" fill="white"/>
</clipPath>
</defs>
</svg>
